<?xml version="1.0" encoding="utf-8"?>
<svg xmlns="http://www.w3.org/2000/svg" xmlns:xlink="http://www.w3.org/1999/xlink" width="600" height="400" viewBox="0 0 600 400">
<defs>
  <clipPath id="clip7900">
    <rect x="0" y="0" width="600" height="400"/>
  </clipPath>
</defs>
<polygon clip-path="url(#clip7900)" points="
0,400 600,400 600,0 0,0 
  " fill="#ffffff" fill-opacity="1"/>
<defs>
  <clipPath id="clip7901">
    <rect x="120" y="0" width="421" height="400"/>
  </clipPath>
</defs>
<polygon clip-path="url(#clip7900)" points="
22.4386,360.121 580.315,360.121 580.315,11.811 22.4386,11.811 
  " fill="#ffffff" fill-opacity="1"/>
<defs>
  <clipPath id="clip7902">
    <rect x="22" y="11" width="559" height="349"/>
  </clipPath>
</defs>
<polyline clip-path="url(#clip7902)" style="stroke:#000000; stroke-width:0.5; stroke-opacity:0.1; fill:none" points="
  33.3774,360.121 33.3774,11.811 
  "/>
<polyline clip-path="url(#clip7902)" style="stroke:#000000; stroke-width:0.5; stroke-opacity:0.1; fill:none" points="
  142.765,360.121 142.765,11.811 
  "/>
<polyline clip-path="url(#clip7902)" style="stroke:#000000; stroke-width:0.5; stroke-opacity:0.1; fill:none" points="
  252.152,360.121 252.152,11.811 
  "/>
<polyline clip-path="url(#clip7902)" style="stroke:#000000; stroke-width:0.5; stroke-opacity:0.1; fill:none" points="
  361.54,360.121 361.54,11.811 
  "/>
<polyline clip-path="url(#clip7902)" style="stroke:#000000; stroke-width:0.5; stroke-opacity:0.1; fill:none" points="
  470.927,360.121 470.927,11.811 
  "/>
<polyline clip-path="url(#clip7902)" style="stroke:#000000; stroke-width:0.5; stroke-opacity:0.1; fill:none" points="
  580.315,360.121 580.315,11.811 
  "/>
<polyline clip-path="url(#clip7902)" style="stroke:#000000; stroke-width:0.5; stroke-opacity:0.1; fill:none" points="
  22.4386,278.539 580.315,278.539 
  "/>
<polyline clip-path="url(#clip7902)" style="stroke:#000000; stroke-width:0.5; stroke-opacity:0.1; fill:none" points="
  22.4386,196.621 580.315,196.621 
  "/>
<polyline clip-path="url(#clip7902)" style="stroke:#000000; stroke-width:0.5; stroke-opacity:0.1; fill:none" points="
  22.4386,114.703 580.315,114.703 
  "/>
<polyline clip-path="url(#clip7902)" style="stroke:#000000; stroke-width:0.5; stroke-opacity:0.1; fill:none" points="
  22.4386,32.7853 580.315,32.7853 
  "/>
<polyline clip-path="url(#clip7900)" style="stroke:#000000; stroke-width:1; stroke-opacity:1; fill:none" points="
  22.4386,360.121 580.315,360.121 
  "/>
<polyline clip-path="url(#clip7900)" style="stroke:#000000; stroke-width:1; stroke-opacity:1; fill:none" points="
  22.4386,360.121 22.4386,11.811 
  "/>
<polyline clip-path="url(#clip7900)" style="stroke:#000000; stroke-width:1; stroke-opacity:1; fill:none" points="
  33.3774,360.121 33.3774,354.896 
  "/>
<polyline clip-path="url(#clip7900)" style="stroke:#000000; stroke-width:1; stroke-opacity:1; fill:none" points="
  142.765,360.121 142.765,354.896 
  "/>
<polyline clip-path="url(#clip7900)" style="stroke:#000000; stroke-width:1; stroke-opacity:1; fill:none" points="
  252.152,360.121 252.152,354.896 
  "/>
<polyline clip-path="url(#clip7900)" style="stroke:#000000; stroke-width:1; stroke-opacity:1; fill:none" points="
  361.54,360.121 361.54,354.896 
  "/>
<polyline clip-path="url(#clip7900)" style="stroke:#000000; stroke-width:1; stroke-opacity:1; fill:none" points="
  470.927,360.121 470.927,354.896 
  "/>
<polyline clip-path="url(#clip7900)" style="stroke:#000000; stroke-width:1; stroke-opacity:1; fill:none" points="
  580.315,360.121 580.315,354.896 
  "/>
<polyline clip-path="url(#clip7900)" style="stroke:#000000; stroke-width:1; stroke-opacity:1; fill:none" points="
  22.4386,278.539 30.8068,278.539 
  "/>
<polyline clip-path="url(#clip7900)" style="stroke:#000000; stroke-width:1; stroke-opacity:1; fill:none" points="
  22.4386,196.621 30.8068,196.621 
  "/>
<polyline clip-path="url(#clip7900)" style="stroke:#000000; stroke-width:1; stroke-opacity:1; fill:none" points="
  22.4386,114.703 30.8068,114.703 
  "/>
<polyline clip-path="url(#clip7900)" style="stroke:#000000; stroke-width:1; stroke-opacity:1; fill:none" points="
  22.4386,32.7853 30.8068,32.7853 
  "/>
<g clip-path="url(#clip7900)">
<text style="fill:#000000; fill-opacity:1; font-family:Arial,Helvetica Neue,Helvetica,sans-serif; font-size:12; text-anchor:middle;" transform="rotate(0, 33.3774, 373.921)" x="33.3774" y="373.921">5</text>
</g>
<g clip-path="url(#clip7900)">
<text style="fill:#000000; fill-opacity:1; font-family:Arial,Helvetica Neue,Helvetica,sans-serif; font-size:12; text-anchor:middle;" transform="rotate(0, 142.765, 373.921)" x="142.765" y="373.921">10</text>
</g>
<g clip-path="url(#clip7900)">
<text style="fill:#000000; fill-opacity:1; font-family:Arial,Helvetica Neue,Helvetica,sans-serif; font-size:12; text-anchor:middle;" transform="rotate(0, 252.152, 373.921)" x="252.152" y="373.921">15</text>
</g>
<g clip-path="url(#clip7900)">
<text style="fill:#000000; fill-opacity:1; font-family:Arial,Helvetica Neue,Helvetica,sans-serif; font-size:12; text-anchor:middle;" transform="rotate(0, 361.54, 373.921)" x="361.54" y="373.921">20</text>
</g>
<g clip-path="url(#clip7900)">
<text style="fill:#000000; fill-opacity:1; font-family:Arial,Helvetica Neue,Helvetica,sans-serif; font-size:12; text-anchor:middle;" transform="rotate(0, 470.927, 373.921)" x="470.927" y="373.921">25</text>
</g>
<g clip-path="url(#clip7900)">
<text style="fill:#000000; fill-opacity:1; font-family:Arial,Helvetica Neue,Helvetica,sans-serif; font-size:12; text-anchor:middle;" transform="rotate(0, 580.315, 373.921)" x="580.315" y="373.921">30</text>
</g>
<g clip-path="url(#clip7900)">
<text style="fill:#000000; fill-opacity:1; font-family:Arial,Helvetica Neue,Helvetica,sans-serif; font-size:12; text-anchor:end;" transform="rotate(0, 16.4386, 283.039)" x="16.4386" y="283.039">0</text>
</g>
<g clip-path="url(#clip7900)">
<text style="fill:#000000; fill-opacity:1; font-family:Arial,Helvetica Neue,Helvetica,sans-serif; font-size:12; text-anchor:end;" transform="rotate(0, 16.4386, 201.121)" x="16.4386" y="201.121">1</text>
</g>
<g clip-path="url(#clip7900)">
<text style="fill:#000000; fill-opacity:1; font-family:Arial,Helvetica Neue,Helvetica,sans-serif; font-size:12; text-anchor:end;" transform="rotate(0, 16.4386, 119.203)" x="16.4386" y="119.203">2</text>
</g>
<g clip-path="url(#clip7900)">
<text style="fill:#000000; fill-opacity:1; font-family:Arial,Helvetica Neue,Helvetica,sans-serif; font-size:12; text-anchor:end;" transform="rotate(0, 16.4386, 37.2853)" x="16.4386" y="37.2853">3</text>
</g>
<g clip-path="url(#clip7900)">
<text style="fill:#000000; fill-opacity:1; font-family:Arial,Helvetica Neue,Helvetica,sans-serif; font-size:16; text-anchor:middle;" transform="rotate(0, 301.377, 397.6)" x="301.377" y="397.6">t</text>
</g>
<polyline clip-path="url(#clip7902)" style="stroke:#009af9; stroke-width:3; stroke-opacity:1; fill:none" points="
  -76.0102,278.539 -75.3532,272.513 -74.6962,266.247 -74.0392,259.752 -73.3822,253.043 -72.7252,246.135 -72.0683,239.045 -71.4113,231.794 -70.7543,224.405 -70.0973,216.903 
  -69.4403,209.315 -68.7833,201.669 -68.1264,193.997 -67.4694,186.332 -66.8124,178.709 -66.1554,171.161 -65.4984,163.726 -64.8415,156.441 -64.1845,149.344 -63.5275,142.471 
  -62.8705,135.863 -62.2135,129.554 -61.5565,123.581 -60.8996,117.979 -60.2426,112.781 -59.5856,108.018 -58.9286,103.72 -58.2716,99.9137 -57.6147,96.6228 -56.9577,93.8682 
  -56.3007,91.667 -55.6437,90.0331 -54.9867,88.9771 -54.3297,88.5062 -53.6728,88.8329 -53.0158,90.5792 -52.3588,93.8006 -51.7018,98.4885 -51.0448,104.608 -50.3878,112.096 
  -49.7309,120.866 -49.0739,130.803 -48.4169,141.764 -47.7599,153.583 -47.1029,166.068 -46.446,179.018 -45.789,192.237 -45.132,205.54 -44.475,218.752 -43.818,231.705 
  -43.161,244.245 -42.5041,256.228 -41.8471,267.54 -41.1901,278.121 -40.5331,287.918 -39.8761,296.901 -39.2192,305.057 -38.5622,312.397 -37.9052,318.949 -37.2482,324.766 
  -36.5912,329.896 -35.9342,334.379 -35.2773,338.263 -34.6203,341.599 -33.9633,344.447 -33.3063,346.869 -32.6493,348.937 -31.9923,350.71 -31.3354,352.206 -30.6784,353.46 
  -30.0214,354.505 -29.3644,355.372 -28.7074,356.088 -28.0505,356.678 -27.3935,357.161 -26.7365,357.557 -26.0795,357.88 -25.4225,358.143 -24.7655,358.357 -24.1086,358.529 
  -23.4516,358.666 -22.7946,358.774 -22.1376,358.856 -21.4806,358.917 -20.8237,358.96 -20.1667,358.986 -19.5097,358.998 -18.8527,358.996 -18.1957,358.981 -17.5387,358.955 
  -16.8818,358.917 -16.2248,358.869 -15.5678,358.81 -14.9108,358.74 -14.2538,358.659 -13.5969,358.567 -12.9399,358.464 -12.2829,358.349 -11.6259,358.222 -10.9689,358.083 
  -10.3119,357.93 -9.65496,357.764 -8.99798,357.583 -8.34099,357.386 -7.68401,357.173 -7.02703,356.943 -6.37005,356.695 -5.71307,356.427 -5.05608,356.138 -4.3991,355.826 
  -3.74212,355.491 -3.08514,355.131 -2.42816,354.743 -1.77117,354.326 -1.11419,353.878 -0.457209,353.397 0.199773,352.88 0.856755,352.325 1.51374,351.729 2.17072,351.088 
  2.8277,350.401 3.48468,349.663 4.14167,348.872 4.79865,348.022 5.45563,347.111 6.11261,346.134 6.76959,345.086 7.42658,343.963 8.08356,342.758 8.74054,341.468 
  9.39752,340.085 10.0545,338.603 10.7115,337.016 11.3685,335.318 12.0255,333.5 12.6824,331.555 13.3394,329.475 13.9964,327.251 14.6534,324.874 15.3104,322.335 
  15.9673,319.623 16.6243,316.728 17.2813,313.641 17.9383,310.349 18.5953,306.842 19.2523,303.109 19.9092,299.138 20.5662,294.916 21.2232,290.431 21.8802,285.67 
  22.5372,280.622 23.1941,275.274 23.8511,269.617 24.5081,263.641 25.1651,257.336 25.8221,250.693 26.4791,243.704 27.136,236.366 27.793,228.673 28.45,220.624 
  29.107,212.22 29.764,203.466 30.4209,194.374 31.0779,184.96 31.7349,175.243 32.3919,165.249 33.0489,155.006 33.7059,144.55 34.3628,133.922 35.0198,123.181 
  35.6768,112.393 36.3338,101.634 36.9908,90.9865 37.6478,80.541 38.3047,70.3961 38.9617,60.6582 39.6187,51.4415 40.2757,42.8681 40.9327,35.068 41.5896,28.1789 
  42.2466,22.3461 42.9036,17.704 43.5606,14.3932 44.2176,12.5447 44.8746,12.2665 45.5315,13.6434 46.1885,16.7373 46.8455,21.5868 47.5025,28.2076 48.1595,36.5921 
  48.8164,46.7098 49.4734,58.5071 50.1304,71.8705 50.7874,86.5943 51.4444,102.483 52.1014,119.324 52.7583,136.883 53.4153,154.909 54.0723,173.131 54.7293,191.26 
  55.3863,208.987 56.0433,226.07 56.7002,242.33 57.3572,257.602 58.0142,271.756 58.6712,284.696 59.3282,296.36 59.9851,306.722 60.6421,315.799 61.2991,323.674 
  61.9561,330.403 62.6131,336.065 63.2701,340.769 63.927,344.652 64.584,347.855 65.241,350.455 65.898,352.536 66.555,354.185 67.2119,355.484 67.8689,356.515 
  68.5259,357.323 69.1829,357.954 69.8399,358.446 70.4969,358.83 71.1538,359.128 71.8108,359.359 72.4678,359.538 73.1248,359.676 73.7818,359.785 74.4387,359.872 
  75.0957,359.941 75.7527,359.994 76.4097,360.034 77.0667,360.064 77.7237,360.087 78.3806,360.102 79.0376,360.112 79.6946,360.117 80.3516,360.119 81.0086,360.116 
  81.6656,360.11 82.3225,360.101 82.9795,360.089 83.6365,360.073 84.2935,360.055 84.9505,360.033 85.6074,360.009 86.2644,359.982 86.9214,359.952 87.5784,359.919 
  88.2354,359.882 88.8924,359.842 89.5493,359.799 90.2063,359.752 90.8633,359.702 91.5203,359.647 92.1773,359.588 92.8342,359.525 93.4912,359.456 94.1482,359.383 
  94.8052,359.303 95.4622,359.218 96.1192,359.126 96.7761,359.028 97.4331,358.921 98.0901,358.807 98.7471,358.684 99.4041,358.552 100.061,358.41 100.718,358.257 
  101.375,358.094 102.032,357.918 102.689,357.729 103.346,357.526 104.003,357.308 104.66,357.074 105.317,356.823 105.974,356.553 106.631,356.263 107.288,355.952 
  107.945,355.618 108.602,355.258 109.259,354.872 109.916,354.457 110.573,354.012 111.23,353.533 111.887,353.019 112.544,352.468 113.201,351.876 113.858,351.242 
  114.515,350.561 115.172,349.831 115.829,349.048 116.486,348.209 117.143,347.308 117.8,346.343 118.457,345.308 119.114,344.197 119.771,343.007 120.427,341.731 
  121.084,340.363 121.741,338.897 122.398,337.326 123.055,335.644 123.712,333.844 124.369,331.918 125.026,329.859 125.683,327.658 126.34,325.308 126.997,322.8 
  127.654,320.121 128.311,317.261 128.968,314.208 129.625,310.951 130.282,307.48 130.939,303.781 131.596,299.844 132.253,295.659 132.91,291.212 133.567,286.493 
  134.224,281.49 134.881,276.192 135.538,270.587 136.195,264.664 136.852,258.412 137.509,251.829 138.166,244.903 138.823,237.624 139.48,229.984 140.137,221.983 
  140.794,213.622 141.451,204.908 142.108,195.854 142.765,186.475 143.422,176.793 144.079,166.832 144.736,156.623 145.393,146.2 146.05,135.603 146.707,124.871 
  147.364,114.049 148.021,103.226 148.678,92.5005 149.335,81.974 149.992,71.7515 150.649,61.9413 151.306,52.6554 151.963,44.0091 152.62,36.1213 153.277,29.1142 
  153.934,23.1136 154.591,18.2486 155.248,14.6518 155.905,12.4595 156.562,11.811 157.218,12.8482 157.875,15.6568 158.532,20.2643 159.189,26.6756 159.846,34.8659 
  160.503,44.7812 161.16,56.3377 161.817,69.4221 162.474,83.8916 163.131,99.574 163.788,116.267 164.445,133.741 165.102,151.727 165.759,169.909 166.416,188.018 
  167.073,205.811 167.73,223.06 168.387,239.553 169.044,255.093 169.701,269.498 170.358,282.655 171.015,294.543 171.672,305.125 172.329,314.408 172.986,322.442 
  173.643,329.321 174.3,335.169 174.957,340.076 175.614,344.126 176.271,347.419 176.928,350.069 177.585,352.208 178.242,353.933 178.899,355.301 179.556,356.375 
  180.213,357.213 180.87,357.867 181.527,358.378 182.184,358.775 182.841,359.083 183.498,359.324 184.155,359.514 184.812,359.663 185.469,359.777 186.126,359.866 
  186.783,359.935 187.44,359.988 188.097,360.028 188.754,360.059 189.411,360.083 190.068,360.1 190.725,360.111 191.382,360.118 192.039,360.12 192.696,360.118 
  193.353,360.112 194.009,360.103 194.666,360.091 195.323,360.076 195.98,360.059 196.637,360.038 197.294,360.014 197.951,359.988 198.608,359.958 199.265,359.925 
  199.922,359.89 200.579,359.851 201.236,359.808 201.893,359.762 202.55,359.712 203.207,359.658 203.864,359.6 204.521,359.537 205.178,359.469 205.835,359.397 
  206.492,359.318 207.149,359.234 207.806,359.143 208.463,359.046 209.12,358.941 209.777,358.828 210.434,358.707 211.091,358.577 211.748,358.438 212.405,358.288 
  213.062,358.127 213.719,357.953 214.376,357.767 215.033,357.567 215.69,357.352 216.347,357.121 217.004,356.872 217.661,356.605 218.318,356.318 218.975,356.01 
  219.632,355.68 220.289,355.325 220.946,354.944 221.603,354.535 222.26,354.096 222.917,353.625 223.574,353.12 224.231,352.577 224.888,351.995 225.545,351.37 
  226.202,350.699 226.859,349.979 227.516,349.206 228.173,348.376 228.83,347.486 229.487,346.53 230.144,345.506 230.8,344.407 231.457,343.23 232.114,341.969 
  232.771,340.619 233.428,339.174 234.085,337.627 234.742,335.97 235.399,334.197 236.056,332.3 236.713,330.269 237.37,328.097 238.027,325.774 238.684,323.292 
  239.341,320.641 239.998,317.81 240.655,314.79 241.312,311.57 241.969,308.138 242.626,304.484 243.283,300.596 243.94,296.462 244.597,292.076 245.254,287.421 
  245.911,282.482 246.568,277.246 247.225,271.699 247.882,265.83 248.539,259.631 249.196,253.094 249.853,246.213 250.51,238.985 251.167,231.406 251.824,223.476 
  252.481,215.197 253.138,206.57 253.795,197.601 254.452,188.296 255.109,178.677 255.766,168.765 256.423,158.587 257.08,148.181 257.737,137.591 258.394,126.87 
  259.051,116.081 259.708,105.293 260.365,94.5847 261.022,84.044 261.679,73.7662 262.336,63.8555 262.993,54.4242 263.65,45.5934 264.307,37.4925 264.964,30.2493 
  265.621,24.0143 266.278,18.9377 266.935,15.1543 267.591,12.7839 268.248,11.9307 268.905,12.6839 269.562,15.1172 270.219,19.2893 270.876,25.2435 271.533,33.0077 
  272.19,42.5828 272.847,53.8609 273.504,66.712 274.161,80.9863 274.818,96.5077 275.475,113.073 276.132,130.454 276.789,148.393 277.446,166.609 278.103,184.792 
  278.76,202.661 279.417,219.993 280.074,236.584 280.731,252.256 281.388,266.861 282.045,280.279 282.702,292.418 283.359,303.232 284.016,312.77 284.673,321.061 
  285.33,328.161 285.987,334.162 286.644,339.194 287.301,343.393 287.958,346.844 288.615,349.637 289.272,351.871 289.929,353.647 290.586,355.068 291.243,356.192 
  291.9,357.073 292.557,357.76 293.214,358.296 293.871,358.712 294.528,359.036 295.185,359.286 295.842,359.481 296.499,359.635 297.156,359.757 297.813,359.852 
  298.47,359.924 299.127,359.981 299.784,360.024 300.441,360.057 301.098,360.081 301.755,360.099 302.412,360.111 303.069,360.118 303.725,360.121 304.382,360.119 
  305.039,360.115 305.696,360.107 306.353,360.095 307.01,360.081 307.667,360.064 308.324,360.044 308.981,360.02 309.638,359.995 310.295,359.966 310.952,359.934 
  311.609,359.899 312.266,359.86 312.923,359.819 313.58,359.774 314.237,359.725 314.894,359.672 315.551,359.615 316.208,359.553 316.865,359.486 317.522,359.415 
  318.179,359.338 318.836,359.255 319.493,359.166 320.15,359.07 320.807,358.967 321.464,358.856 322.121,358.737 322.778,358.609 323.435,358.471 324.092,358.324 
  324.749,358.165 325.406,357.995 326.063,357.812 326.72,357.616 327.377,357.405 328.034,357.178 328.691,356.934 329.348,356.672 330.005,356.39 330.662,356.087 
  331.319,355.762 331.976,355.413 332.633,355.038 333.29,354.635 333.947,354.203 334.604,353.74 335.261,353.242 335.918,352.708 336.575,352.136 337.232,351.521 
  337.889,350.862 338.546,350.154 339.203,349.395 339.86,348.58 340.516,347.705 341.173,346.767 341.83,345.76 342.487,344.68 343.144,343.522 343.801,342.28 
  344.458,340.951 345.115,339.526 345.772,338.002 346.429,336.372 347.086,334.627 347.743,332.76 348.4,330.763 349.057,328.627 349.714,326.343 350.371,323.901 
  351.028,321.291 351.685,318.505 352.342,315.531 352.999,312.36 353.656,308.979 354.313,305.379 354.97,301.547 355.627,297.472 356.284,293.141 356.941,288.543 
  357.598,283.67 358.255,278.51 358.912,273.046 359.569,267.264 360.226,261.152 360.883,254.701 361.54,247.904 362.197,240.756 362.854,233.255 363.511,225.401 
  364.168,217.196 364.825,208.645 365.482,199.754 366.139,190.534 366.796,180.995 367.453,171.154 368.11,161.035 368.767,150.677 369.424,140.123 370.081,129.425 
  370.738,118.643 371.395,107.847 372.052,97.113 372.709,86.5264 373.366,76.1802 374.023,66.1761 374.68,56.6236 375.337,47.6406 375.994,39.3531 376.651,31.8953 
  377.307,25.4097 377.964,20.035 378.621,15.9099 379.278,13.1744 379.935,11.947 380.592,12.3245 381.249,14.3825 381.906,18.1745 382.563,23.733 383.22,31.0685 
  383.877,40.1701 384.534,51.0053 385.191,63.4958 385.848,77.4569 386.505,92.7046 387.162,109.037 387.819,126.232 388.476,144.045 389.133,162.212 389.79,180.449 
  390.447,198.449 391.104,215.944 391.761,232.732 392.418,248.63 393.075,263.485 393.732,277.178 394.389,289.622 395.046,300.764 395.703,310.596 396.36,319.186 
  397.017,326.579 397.674,332.847 398.331,338.093 398.988,342.454 399.645,346.068 400.302,349.015 400.959,351.385 401.616,353.269 402.273,354.76 402.93,355.947 
  403.587,356.881 404.244,357.611 404.901,358.18 405.558,358.622 406.215,358.967 406.872,359.234 407.529,359.44 408.186,359.601 408.843,359.728 409.5,359.829 
  410.157,359.908 410.814,359.968 411.471,360.015 412.128,360.05 412.785,360.076 413.442,360.096 414.098,360.109 414.755,360.117 415.412,360.121 416.069,360.12 
  416.726,360.116 417.383,360.109 418.04,360.098 418.697,360.085 419.354,360.068 420.011,360.049 420.668,360.026 421.325,360.001 421.982,359.973 422.639,359.942 
  423.296,359.908 423.953,359.87 424.61,359.829 425.267,359.785 425.924,359.737 426.581,359.685 427.238,359.629 427.895,359.569 428.552,359.503 429.209,359.433 
  429.866,359.358 430.523,359.276 431.18,359.189 431.837,359.095 432.494,358.993 433.151,358.884 433.808,358.767 434.465,358.641 435.122,358.506 435.779,358.361 
  436.436,358.205 437.093,358.038 437.75,357.858 438.407,357.665 439.064,357.457 439.721,357.235 440.378,356.995 441.035,356.738 441.692,356.462 442.349,356.165 
  443.006,355.846 443.663,355.503 444.32,355.134 444.977,354.739 445.634,354.314 446.291,353.858 446.948,353.368 447.605,352.843 448.262,352.28 448.919,351.675 
  449.576,351.027 450.233,350.331 450.889,349.585 451.546,348.785 452.203,347.926 452.86,347.005 453.517,346.016 454.174,344.956 454.831,343.819 455.488,342.599 
  456.145,341.292 456.802,339.892 457.459,338.391 458.116,336.785 458.773,335.066 459.43,333.228 460.087,331.264 460.744,329.163 461.401,326.918 462.058,324.518 
  462.715,321.953 463.372,319.213 464.029,316.288 464.686,313.166 465.343,309.839 466,306.293 466.657,302.518 467.314,298.503 467.971,294.236 468.628,289.704 
  469.285,284.897 469.942,279.801 470.599,274.405 471.256,268.705 471.913,262.684 472.57,256.329 473.227,249.629 473.884,242.576 474.541,235.165 475.198,227.396 
  475.855,219.27 476.512,210.793 477.169,201.974 477.826,192.825 478.483,183.36 479.14,173.597 479.797,163.56 480.454,153.271 481.111,142.761 481.768,132.082 
  482.425,121.299 483.082,110.485 483.739,99.7175 484.396,89.082 485.053,78.6709 485.71,68.5833 486.367,58.9253 487.024,49.8098 487.68,41.3564 488.337,33.6919 
  488.994,26.9496 489.651,21.2699 490.308,16.8 490.965,13.6913 491.622,12.0644 492.279,12.0291 492.936,13.6745 493.593,17.0615 494.25,22.2234 494.907,29.1655 
  495.564,37.8649 496.221,48.2713 496.878,60.306 497.535,73.8629 498.192,88.8062 498.849,104.898 499.506,121.881 500.163,139.519 500.82,157.569 501.477,175.778 
  502.134,193.887 502.791,211.625 503.448,228.715 504.105,244.885 504.762,260.02 505.419,274.007 506.076,286.748 506.733,298.187 507.39,308.313 508.047,317.158 
  508.704,324.797 509.361,331.344 510.018,336.888 510.675,341.504 511.332,345.284 511.989,348.341 512.646,350.808 513.303,352.815 513.96,354.417 514.617,355.681 
  515.274,356.67 515.931,357.442 516.588,358.046 517.245,358.517 517.902,358.882 518.559,359.167 519.216,359.391 519.873,359.567 520.53,359.704 521.187,359.809 
  521.844,359.89 522.501,359.954 523.158,360.002 523.815,360.039 524.471,360.067 525.128,360.089 525.785,360.104 526.442,360.113 527.099,360.118 527.756,360.119 
  528.413,360.116 529.07,360.109 529.727,360.099 530.384,360.086 531.041,360.07 531.698,360.051 532.355,360.03 533.012,360.005 533.669,359.977 534.326,359.947 
  534.983,359.913 535.64,359.876 536.297,359.836 536.954,359.792 537.611,359.745 538.268,359.694 538.925,359.638 539.582,359.578 540.239,359.514 540.896,359.444 
  541.553,359.37 542.21,359.289 542.867,359.202 543.524,359.109 544.181,359.009 544.838,358.902 545.495,358.786 546.152,358.662 546.809,358.529 547.466,358.386 
  548.123,358.232 548.78,358.067 549.437,357.889 550.094,357.698 550.751,357.493 551.408,357.272 552.065,357.035 552.722,356.78 553.379,356.506 554.036,356.212 
  554.693,355.896 555.35,355.557 556.007,355.193 556.664,354.803 557.321,354.383 557.978,353.933 558.635,353.451 559.292,352.932 559.949,352.376 560.605,351.779 
  561.262,351.139 561.919,350.451 562.576,349.713 563.233,348.92 563.89,348.069 564.547,347.156 565.204,346.177 565.861,345.127 566.518,344.001 567.175,342.795 
  567.832,341.503 568.489,340.12 569.146,338.639 569.803,337.054 570.46,335.358 571.117,333.542 571.774,331.598 572.431,329.519 573.088,327.295 573.745,324.917 
  574.402,322.377 575.059,319.663 575.716,316.767 576.373,313.677 577.03,310.384 577.687,306.875 578.344,303.139 579.001,299.165 579.658,294.941 580.315,290.454 
  
  "/>
<polygon clip-path="url(#clip7900)" points="
474.566,62.931 562.315,62.931 562.315,32.691 474.566,32.691 
  " fill="#ffffff" fill-opacity="1"/>
<polyline clip-path="url(#clip7900)" style="stroke:#000000; stroke-width:1; stroke-opacity:1; fill:none" points="
  474.566,62.931 562.315,62.931 562.315,32.691 474.566,32.691 474.566,62.931 
  "/>
<polyline clip-path="url(#clip7900)" style="stroke:#009af9; stroke-width:3; stroke-opacity:1; fill:none" points="
  480.566,47.811 516.566,47.811 
  "/>
<g clip-path="url(#clip7900)">
<text style="fill:#000000; fill-opacity:1; font-family:Arial,Helvetica Neue,Helvetica,sans-serif; font-size:12; text-anchor:start;" transform="rotate(0, 522.566, 52.311)" x="522.566" y="52.311">y(t)=t</text>
</g>
</svg>
